<svg class="diagram-root" style="background: #f5f6f6" xmlns="http://www.w3.org/2000/svg" xmlns:xlink="http://www.w3.org/1999/xlink"><style>.diagram-root { font-family: "Helvetica Neue", sans-serif; font-size: 12px; } .t { overflow: visible; } .t-bg { y: 40; fill: #fff;   } .th { fill: #005aa0;   } .tht { fill: #fff; font-size: 14px;  } .tf { fill: #323c46; overflow: visible; } .tf.pk { fill: #005aa0; font-weight: bold; } .tf.fk { font-weight: bold; } .ty { fill: #adb1b5; font-weight: normal; text-anchor: end; } .r { fill: transparent; stroke: #c3c3c3; stroke-width: 1; } .l { stroke: 1; } .i { fill: #c2c7ce; stroke: #c2c7ce; } .i.ix { fill: #afb3b6; stroke: #000; } .fa { fill: transparent; overflow: visible; } .fa .bg.hover { fill: #f7f7f7; } .c { cy: 12; r: 4; stroke: #d2d2dc; fill: #d2d2dc; } .hr { fill: transparent; stroke: #323c46; stroke-opacity: 0.035; stroke-width: 13; } .dc { stroke: #fa5a3c; fill: #fa5a3c; } .x { stroke: white; stroke-width: 1; } .hl .th { fill: #1b9bff; } .hl .tht {  } .fhl .bg { fill: #e7f4ff; } .fhls .bg {  } .r.hl { stroke: #1b9bff; } .dim { opacity: 0.25; }</style><g class="drawing-wrapper" transform="translate(-67, 44) scale(1,1)"><g class="rs"><path d="M 233.06 397 m -1, 0 a 1,1 0 1,0 2,0 a 1,1 0 1,0 -2,0 M 233.06 397 m -0.5, 0 a 0.5,0.5 0 1,0 1,0 a 0.5,0.5 0 1,0 -1,0  M233.06 397 L233.06 397 245.06 397 M 233.06 403 m -1, 0 a 1,1 0 1,0 2,0 a 1,1 0 1,0 -2,0 M 233.06 403 m -0.5, 0 a 0.5,0.5 0 1,0 1,0 a 0.5,0.5 0 1,0 -1,0  M233.06 403 L233.06 403 240.06 397 233.06 391 M 233.06 391 m -1, 0 a 1,1 0 1,0 2,0 a 1,1 0 1,0 -2,0 M 233.06 391 m -0.5, 0 a 0.5,0.5 0 1,0 1,0 a 0.5,0.5 0 1,0 -1,0  M245.06 397 Q 272.04 397, 299.03 342 T 353 287 M 365 287 m -1, 0 a 1,1 0 1,0 2,0 a 1,1 0 1,0 -2,0 M 365 287 m -0.5, 0 a 0.5,0.5 0 1,0 1,0 a 0.5,0.5 0 1,0 -1,0  M365 287 L365 287 353 287 M359 293 L359 293 359 281" id="h1139284389" class="r"></path><path d="M 89 422 m -1, 0 a 1,1 0 1,0 2,0 a 1,1 0 1,0 -2,0 M 89 422 m -0.5, 0 a 0.5,0.5 0 1,0 1,0 a 0.5,0.5 0 1,0 -1,0  M89 422 L89 422 77 422 M 89 428 m -1, 0 a 1,1 0 1,0 2,0 a 1,1 0 1,0 -2,0 M 89 428 m -0.5, 0 a 0.5,0.5 0 1,0 1,0 a 0.5,0.5 0 1,0 -1,0  M89 428 L89 428 82 422 89 416 M 89 416 m -1, 0 a 1,1 0 1,0 2,0 a 1,1 0 1,0 -2,0 M 89 416 m -0.5, 0 a 0.5,0.5 0 1,0 1,0 a 0.5,0.5 0 1,0 -1,0  M77 422 C 27 422, 25.2 43, 80 43 M 92 43 m -1, 0 a 1,1 0 1,0 2,0 a 1,1 0 1,0 -2,0 M 92 43 m -0.5, 0 a 0.5,0.5 0 1,0 1,0 a 0.5,0.5 0 1,0 -1,0  M92 43 L92 43 80 43 M86 49 L86 49 86 37" id="h1607168654" class="r"></path><path d="M 257.06 196 m -1, 0 a 1,1 0 1,0 2,0 a 1,1 0 1,0 -2,0 M 257.06 196 m -0.5, 0 a 0.5,0.5 0 1,0 1,0 a 0.5,0.5 0 1,0 -1,0  M257.06 196 L257.06 196 269.06 196 M 257.06 202 m -1, 0 a 1,1 0 1,0 2,0 a 1,1 0 1,0 -2,0 M 257.06 202 m -0.5, 0 a 0.5,0.5 0 1,0 1,0 a 0.5,0.5 0 1,0 -1,0  M257.06 202 L257.06 202 264.06 196 257.06 190 M 257.06 190 m -1, 0 a 1,1 0 1,0 2,0 a 1,1 0 1,0 -2,0 M 257.06 190 m -0.5, 0 a 0.5,0.5 0 1,0 1,0 a 0.5,0.5 0 1,0 -1,0  M269.06 196 C 322.804 196, 321.4 43, 271.4 43 M 259.4 43 m -1, 0 a 1,1 0 1,0 2,0 a 1,1 0 1,0 -2,0 M 259.4 43 m -0.5, 0 a 0.5,0.5 0 1,0 1,0 a 0.5,0.5 0 1,0 -1,0  M259.4 43 L259.4 43 271.4 43 M265.4 49 L265.4 49 265.4 37" id="h1397587031" class="r"></path><path d="M 257.06 221 m -1, 0 a 1,1 0 1,0 2,0 a 1,1 0 1,0 -2,0 M 257.06 221 m -0.5, 0 a 0.5,0.5 0 1,0 1,0 a 0.5,0.5 0 1,0 -1,0  M257.06 221 L257.06 221 269.06 221 M 257.06 227 m -1, 0 a 1,1 0 1,0 2,0 a 1,1 0 1,0 -2,0 M 257.06 227 m -0.5, 0 a 0.5,0.5 0 1,0 1,0 a 0.5,0.5 0 1,0 -1,0  M257.06 227 L257.06 227 264.06 221 257.06 215 M 257.06 215 m -1, 0 a 1,1 0 1,0 2,0 a 1,1 0 1,0 -2,0 M 257.06 215 m -0.5, 0 a 0.5,0.5 0 1,0 1,0 a 0.5,0.5 0 1,0 -1,0  M269.06 221 Q 290.04 221, 311.03 254 T 353 287 M 365 287 m -1, 0 a 1,1 0 1,0 2,0 a 1,1 0 1,0 -2,0 M 365 287 m -0.5, 0 a 0.5,0.5 0 1,0 1,0 a 0.5,0.5 0 1,0 -1,0  M365 287 L365 287 353 287 M359 293 L359 293 359 281" id="h2286254435" class="r"></path><path d="M 615.38 507 m -1, 0 a 1,1 0 1,0 2,0 a 1,1 0 1,0 -2,0 M 615.38 507 m -0.5, 0 a 0.5,0.5 0 1,0 1,0 a 0.5,0.5 0 1,0 -1,0  M615.38 507 L615.38 507 627.38 507 M 615.38 513 m -1, 0 a 1,1 0 1,0 2,0 a 1,1 0 1,0 -2,0 M 615.38 513 m -0.5, 0 a 0.5,0.5 0 1,0 1,0 a 0.5,0.5 0 1,0 -1,0  M615.38 513 L615.38 513 622.38 507 615.38 501 M 615.38 501 m -1, 0 a 1,1 0 1,0 2,0 a 1,1 0 1,0 -2,0 M 615.38 501 m -0.5, 0 a 0.5,0.5 0 1,0 1,0 a 0.5,0.5 0 1,0 -1,0  M627.38 507 C 677.38 507, 729.58 287, 540.38 287 M 528.38 287 m -1, 0 a 1,1 0 1,0 2,0 a 1,1 0 1,0 -2,0 M 528.38 287 m -0.5, 0 a 0.5,0.5 0 1,0 1,0 a 0.5,0.5 0 1,0 -1,0  M528.38 287 L528.38 287 540.38 287 M534.38 293 L534.38 293 534.38 281" id="h3177548053" class="r"></path><path d="M 598.38 107 m -1, 0 a 1,1 0 1,0 2,0 a 1,1 0 1,0 -2,0 M 598.38 107 m -0.5, 0 a 0.5,0.5 0 1,0 1,0 a 0.5,0.5 0 1,0 -1,0  M598.38 107 L598.38 107 610.38 107 M 598.38 113 m -1, 0 a 1,1 0 1,0 2,0 a 1,1 0 1,0 -2,0 M 598.38 113 m -0.5, 0 a 0.5,0.5 0 1,0 1,0 a 0.5,0.5 0 1,0 -1,0  M598.38 113 L598.38 113 605.38 107 598.38 101 M 598.38 101 m -1, 0 a 1,1 0 1,0 2,0 a 1,1 0 1,0 -2,0 M 598.38 101 m -0.5, 0 a 0.5,0.5 0 1,0 1,0 a 0.5,0.5 0 1,0 -1,0  M610.38 107 C 660.38 107, 702.38 287, 540.38 287 M 528.38 287 m -1, 0 a 1,1 0 1,0 2,0 a 1,1 0 1,0 -2,0 M 528.38 287 m -0.5, 0 a 0.5,0.5 0 1,0 1,0 a 0.5,0.5 0 1,0 -1,0  M528.38 287 L528.38 287 540.38 287 M534.38 293 L534.38 293 534.38 281" id="h3000826536" class="r"></path></g><g class="hrs"></g><g class="ts"><svg width="167.4" height="100" x="92" y="-14" id="h475896179" class="t"><rect height="40" width="167.4" class="th"></rect><text x="13" y="25" class="tht">departments</text><rect height="60" width="167.4" class="t-bg" y="40"></rect><text x="13" y="61" class="tf pk">dept_no<tspan x="154.4" class="ty">varchar(4)</tspan></text><path d="M7,14A2,2 0 0,1 5,12A2,2 0 0,1 7,10A2,2 0 0,1 9,12A2,2 0 0,1 7,14M12.65,10C11.83,7.67 9.61,6 7, 6A6, 6 0 0, 0 1, 12A6, 6 0 0, 0 7, 18C9.61, 18 11.83, 16.33 12.65, 14H17V18H21V14H23V10H12.65Z" class="i pk" transform="translate(79.7203125, 48) scale(0.65)"></path><text x="13" y="86" class="tf">dept_name<tspan x="154.4" class="ty">varchar(30)</tspan></text></svg><svg width="144.06" height="150" x="89" y="340" id="h1090417462" class="t"><rect height="40" width="144.06" class="th"></rect><text x="13" y="25" class="tht">dept_emp</text><rect height="110" width="144.06" class="t-bg" y="40"></rect><text x="13" y="61" class="tf pk">emp_no<tspan x="131.06" class="ty">int</tspan></text><path d="M7,14A2,2 0 0,1 5,12A2,2 0 0,1 7,10A2,2 0 0,1 9,12A2,2 0 0,1 7,14M12.65,10C11.83,7.67 9.61,6 7, 6A6, 6 0 0, 0 1, 12A6, 6 0 0, 0 7, 18C9.61, 18 11.83, 16.33 12.65, 14H17V18H21V14H23V10H12.65Z" class="i pk" transform="translate(98.386171875, 48) scale(0.65)"></path><text x="13" y="86" class="tf fk">dept_no<tspan x="131.06" class="ty">varchar(4)</tspan></text><text x="13" y="111" class="tf pk">from_date<tspan x="131.06" class="ty">date</tspan></text><path d="M7,14A2,2 0 0,1 5,12A2,2 0 0,1 7,10A2,2 0 0,1 9,12A2,2 0 0,1 7,14M12.65,10C11.83,7.67 9.61,6 7, 6A6, 6 0 0, 0 1, 12A6, 6 0 0, 0 7, 18C9.61, 18 11.83, 16.33 12.65, 14H17V18H21V14H23V10H12.65Z" class="i pk" transform="translate(87.70453125, 98) scale(0.65)"></path><text x="13" y="136" class="tf pk">to_date<tspan x="131.06" class="ty">date</tspan></text><path d="M7,14A2,2 0 0,1 5,12A2,2 0 0,1 7,10A2,2 0 0,1 9,12A2,2 0 0,1 7,14M12.65,10C11.83,7.67 9.61,6 7, 6A6, 6 0 0, 0 1, 12A6, 6 0 0, 0 7, 18C9.61, 18 11.83, 16.33 12.65, 14H17V18H21V14H23V10H12.65Z" class="i pk" transform="translate(87.70453125, 123) scale(0.65)"></path></svg><svg width="144.06" height="150" x="113" y="139" id="h1676682957" class="t"><rect height="40" width="144.06" class="th"></rect><text x="13" y="25" class="tht">dept_manager</text><rect height="110" width="144.06" class="t-bg" y="40"></rect><text x="13" y="61" class="tf fk">dept_no<tspan x="131.06" class="ty">varchar(4)</tspan></text><text x="13" y="86" class="tf pk">emp_no<tspan x="131.06" class="ty">int</tspan></text><path d="M7,14A2,2 0 0,1 5,12A2,2 0 0,1 7,10A2,2 0 0,1 9,12A2,2 0 0,1 7,14M12.65,10C11.83,7.67 9.61,6 7, 6A6, 6 0 0, 0 1, 12A6, 6 0 0, 0 7, 18C9.61, 18 11.83, 16.33 12.65, 14H17V18H21V14H23V10H12.65Z" class="i pk" transform="translate(98.386171875, 73) scale(0.65)"></path><text x="13" y="111" class="tf pk">from_date<tspan x="131.06" class="ty">date</tspan></text><path d="M7,14A2,2 0 0,1 5,12A2,2 0 0,1 7,10A2,2 0 0,1 9,12A2,2 0 0,1 7,14M12.65,10C11.83,7.67 9.61,6 7, 6A6, 6 0 0, 0 1, 12A6, 6 0 0, 0 7, 18C9.61, 18 11.83, 16.33 12.65, 14H17V18H21V14H23V10H12.65Z" class="i pk" transform="translate(87.70453125, 98) scale(0.65)"></path><text x="13" y="136" class="tf pk">to_date<tspan x="131.06" class="ty">date</tspan></text><path d="M7,14A2,2 0 0,1 5,12A2,2 0 0,1 7,10A2,2 0 0,1 9,12A2,2 0 0,1 7,14M12.65,10C11.83,7.67 9.61,6 7, 6A6, 6 0 0, 0 1, 12A6, 6 0 0, 0 7, 18C9.61, 18 11.83, 16.33 12.65, 14H17V18H21V14H23V10H12.65Z" class="i pk" transform="translate(87.70453125, 123) scale(0.65)"></path></svg><svg width="143.38" height="150" x="455" y="50" id="h311790747" class="t"><rect height="40" width="143.38" class="th"></rect><text x="13" y="25" class="tht">titles</text><rect height="110" width="143.38" class="t-bg" y="40"></rect><text x="13" y="61" class="tf pk">emp_no<tspan x="130.38" class="ty">int</tspan></text><path d="M7,14A2,2 0 0,1 5,12A2,2 0 0,1 7,10A2,2 0 0,1 9,12A2,2 0 0,1 7,14M12.65,10C11.83,7.67 9.61,6 7, 6A6, 6 0 0, 0 1, 12A6, 6 0 0, 0 7, 18C9.61, 18 11.83, 16.33 12.65, 14H17V18H21V14H23V10H12.65Z" class="i pk" transform="translate(97.706171875, 48) scale(0.65)"></path><text x="13" y="86" class="tf">title<tspan x="130.38" class="ty">varchar(30)</tspan></text><text x="13" y="111" class="tf pk">from_date<tspan x="130.38" class="ty">date</tspan></text><path d="M7,14A2,2 0 0,1 5,12A2,2 0 0,1 7,10A2,2 0 0,1 9,12A2,2 0 0,1 7,14M12.65,10C11.83,7.67 9.61,6 7, 6A6, 6 0 0, 0 1, 12A6, 6 0 0, 0 7, 18C9.61, 18 11.83, 16.33 12.65, 14H17V18H21V14H23V10H12.65Z" class="i pk" transform="translate(87.02453125, 98) scale(0.65)"></path><text x="13" y="136" class="tf pk">to_date<tspan x="130.38" class="ty">date</tspan></text><path d="M7,14A2,2 0 0,1 5,12A2,2 0 0,1 7,10A2,2 0 0,1 9,12A2,2 0 0,1 7,14M12.65,10C11.83,7.67 9.61,6 7, 6A6, 6 0 0, 0 1, 12A6, 6 0 0, 0 7, 18C9.61, 18 11.83, 16.33 12.65, 14H17V18H21V14H23V10H12.65Z" class="i pk" transform="translate(87.02453125, 123) scale(0.65)"></path></svg><svg width="163.38" height="200" x="365" y="230" id="h1639608377" class="t"><rect height="40" width="163.38" class="th"></rect><text x="13" y="25" class="tht">employees</text><rect height="160" width="163.38" class="t-bg" y="40"></rect><text x="13" y="61" class="tf pk">emp_no<tspan x="150.38" class="ty">int</tspan></text><path d="M7,14A2,2 0 0,1 5,12A2,2 0 0,1 7,10A2,2 0 0,1 9,12A2,2 0 0,1 7,14M12.65,10C11.83,7.67 9.61,6 7, 6A6, 6 0 0, 0 1, 12A6, 6 0 0, 0 7, 18C9.61, 18 11.83, 16.33 12.65, 14H17V18H21V14H23V10H12.65Z" class="i pk" transform="translate(117.706171875, 48) scale(0.65)"></path><text x="13" y="86" class="tf">birth_date<tspan x="150.38" class="ty">date</tspan></text><text x="13" y="111" class="tf">first_name<tspan x="150.38" class="ty">varchar(30)</tspan></text><text x="13" y="136" class="tf">last_name<tspan x="150.38" class="ty">varchar(30)</tspan></text><text x="13" y="161" class="tf">gender<tspan x="150.38" class="ty">varchar(1)</tspan></text><text x="13" y="186" class="tf">hire_date<tspan x="150.38" class="ty">date</tspan></text></svg><svg width="143.38" height="150" x="472" y="450" id="h2472833127" class="t"><rect height="40" width="143.38" class="th"></rect><text x="13" y="25" class="tht">salaries</text><rect height="110" width="143.38" class="t-bg" y="40"></rect><text x="13" y="61" class="tf pk">emp_no<tspan x="130.38" class="ty">int</tspan></text><path d="M7,14A2,2 0 0,1 5,12A2,2 0 0,1 7,10A2,2 0 0,1 9,12A2,2 0 0,1 7,14M12.65,10C11.83,7.67 9.61,6 7, 6A6, 6 0 0, 0 1, 12A6, 6 0 0, 0 7, 18C9.61, 18 11.83, 16.33 12.65, 14H17V18H21V14H23V10H12.65Z" class="i pk" transform="translate(97.706171875, 48) scale(0.65)"></path><text x="13" y="86" class="tf">salary<tspan x="130.38" class="ty">money</tspan></text><text x="13" y="111" class="tf pk">from_date<tspan x="130.38" class="ty">date</tspan></text><path d="M7,14A2,2 0 0,1 5,12A2,2 0 0,1 7,10A2,2 0 0,1 9,12A2,2 0 0,1 7,14M12.65,10C11.83,7.67 9.61,6 7, 6A6, 6 0 0, 0 1, 12A6, 6 0 0, 0 7, 18C9.61, 18 11.83, 16.33 12.65, 14H17V18H21V14H23V10H12.65Z" class="i pk" transform="translate(87.02453125, 98) scale(0.65)"></path><text x="13" y="136" class="tf pk">to_date<tspan x="130.38" class="ty">date</tspan></text><path d="M7,14A2,2 0 0,1 5,12A2,2 0 0,1 7,10A2,2 0 0,1 9,12A2,2 0 0,1 7,14M12.65,10C11.83,7.67 9.61,6 7, 6A6, 6 0 0, 0 1, 12A6, 6 0 0, 0 7, 18C9.61, 18 11.83, 16.33 12.65, 14H17V18H21V14H23V10H12.65Z" class="i pk" transform="translate(87.02453125, 123) scale(0.65)"></path></svg></g></g><text class="qdbd-link" x="10" y="20">www.quickdatabasediagrams.com</text></svg>